STARTFONT 2.1
FONT -DEC-Terminal-Bold-R-Wide--25-180-100-100-C-180-iso8859-4
SIZE 18 100 100
FONTBOUNDINGBOX 18 25 0 -5

STARTPROPERTIES 24
FOUNDRY "Monotype"
FAMILY_NAME "VT"
WEIGHT_NAME "Bold"
SLANT "R"
SETWIDTH_NAME "Wide"
ADD_STYLE_NAME ""
PIXEL_SIZE 25
POINT_SIZE 180
RESOLUTION_X 100
RESOLUTION_Y 100
SPACING "C"
AVERAGE_WIDTH 180
CHARSET_REGISTRY "iso8859"
CHARSET_ENCODING "4"
FACE_NAME "VT Wide Bold ISO Latin4"
_DEC_DEVICE_FONTNAMES "PS=vt-wide-bold-isolatin4"
COPYRIGHT "Copyright (c) 1993 Monotype Typography Ltd."
CAP_HEIGHT 14
X_HEIGHT 10
WEIGHT 10
QUAD_WIDTH 18
DEFAULT_CHAR 160
FONT_DESCENT 5
FONT_ASCENT 20
ENDPROPERTIES

CHARS 191

STARTCHAR space
ENCODING 32
SWIDTH 723 0
DWIDTH 18 0
BBX 18 25 0 -5
BITMAP
000000
000000
000000
000000
000000
000000
000000
000000
000000
000000
000000
000000
000000
000000
000000
000000
000000
000000
000000
000000
000000
000000
000000
000000
000000
ENDCHAR

STARTCHAR exclam
ENCODING 33
SWIDTH 723 0
DWIDTH 18 0
BBX 18 25 0 -5
BITMAP
000000
000000
000000
000000
000000
03E000
03E000
03E000
03E000
03E000
03E000
03E000
03E000
03E000
03E000
000000
000000
03E000
07F000
03E000
000000
000000
000000
000000
000000
ENDCHAR

STARTCHAR quotedbl
ENCODING 34
SWIDTH 723 0
DWIDTH 18 0
BBX 18 25 0 -5
BITMAP
000000
000000
000000
000000
0E3800
0E3800
0E3800
0E3800
0E3800
0E3800
0E3800
000000
000000
000000
000000
000000
000000
000000
000000
000000
000000
000000
000000
000000
000000
ENDCHAR

STARTCHAR numbersign
ENCODING 35
SWIDTH 723 0
DWIDTH 18 0
BBX 18 25 0 -5
BITMAP
000000
000000
000000
000000
000000
0E3800
0E3800
0E3800
0E3800
0E3800
7FFF00
7FFF00
0E3800
0E3800
0E3800
7FFF00
7FFF00
0E3800
0E3800
0E3800
0E3800
0E3800
0E3800
000000
000000
ENDCHAR

STARTCHAR dollar
ENCODING 36
SWIDTH 723 0
DWIDTH 18 0
BBX 18 25 0 -5
BITMAP
000000
000000
000000
000000
03C000
03C000
03C000
0FF700
3C3F00
781F00
780F00
7F0000
3FF800
0FFE00
00FF00
000F00
780F00
781F00
7FFE00
77F800
03C000
03C000
03C000
000000
000000
ENDCHAR

STARTCHAR percent
ENCODING 37
SWIDTH 723 0
DWIDTH 18 0
BBX 18 25 0 -5
BITMAP
000000
000000
000000
000000
000000
3F8000
F1E000
F1E000
F1E000
F1E000
3F8700
001F00
00F800
03C000
0F0000
7CFE00
73C780
03C780
03C780
03C780
00FE00
000000
000000
000000
000000
ENDCHAR

STARTCHAR ampersand
ENCODING 38
SWIDTH 723 0
DWIDTH 18 0
BBX 18 25 0 -5
BITMAP
000000
000000
000000
000000
000000
000000
07B000
0FF000
1C7000
1C3000
1E0000
0F0000
078000
1FC300
3DE700
78FF00
787C00
7C3C00
3FFF00
0FCF00
000000
000000
000000
000000
000000
ENDCHAR

STARTCHAR quoteright
ENCODING 39
SWIDTH 723 0
DWIDTH 18 0
BBX 18 25 0 -5
BITMAP
000000
000000
000000
000000
00F800
01F000
01E000
03C000
038000
070000
000000
000000
000000
000000
000000
000000
000000
000000
000000
000000
000000
000000
000000
000000
000000
ENDCHAR

STARTCHAR parenleft
ENCODING 40
SWIDTH 723 0
DWIDTH 18 0
BBX 18 25 0 -5
BITMAP
000000
000000
000000
000000
001C00
007800
01F000
01E000
03C000
03C000
078000
078000
078000
078000
078000
078000
078000
03C000
03C000
01E000
01F000
007800
001C00
000000
000000
ENDCHAR

STARTCHAR parenright
ENCODING 41
SWIDTH 723 0
DWIDTH 18 0
BBX 18 25 0 -5
BITMAP
000000
000000
000000
000000
0E0000
078000
03E000
01E000
00F000
00F000
007800
007800
007800
007800
007800
007800
007800
00F000
00F000
01E000
03E000
078000
0E0000
000000
000000
ENDCHAR

STARTCHAR asterisk
ENCODING 42
SWIDTH 723 0
DWIDTH 18 0
BBX 18 25 0 -5
BITMAP
000000
000000
000000
000000
000000
000000
000000
000000
01C000
01C000
39CE00
3DDE00
0FF800
03E000
0F7800
1E3C00
3C1E00
000000
000000
000000
000000
000000
000000
000000
000000
ENDCHAR

STARTCHAR plus
ENCODING 43
SWIDTH 723 0
DWIDTH 18 0
BBX 18 25 0 -5
BITMAP
000000
000000
000000
000000
000000
000000
000000
000000
000000
03C000
03C000
03C000
03C000
7FFE00
7FFE00
03C000
03C000
03C000
03C000
000000
000000
000000
000000
000000
000000
ENDCHAR

STARTCHAR comma
ENCODING 44
SWIDTH 723 0
DWIDTH 18 0
BBX 18 25 0 -5
BITMAP
000000
000000
000000
000000
000000
000000
000000
000000
000000
000000
000000
000000
000000
000000
000000
000000
000000
03E000
03E000
07C000
0F8000
0E0000
000000
000000
000000
ENDCHAR

STARTCHAR minus
ENCODING 45
SWIDTH 723 0
DWIDTH 18 0
BBX 18 25 0 -5
BITMAP
000000
000000
000000
000000
000000
000000
000000
000000
000000
000000
000000
000000
000000
3FFE00
3FFE00
000000
000000
000000
000000
000000
000000
000000
000000
000000
000000
ENDCHAR

STARTCHAR period
ENCODING 46
SWIDTH 723 0
DWIDTH 18 0
BBX 18 25 0 -5
BITMAP
000000
000000
000000
000000
000000
000000
000000
000000
000000
000000
000000
000000
000000
000000
000000
000000
000000
03E000
07F000
03E000
000000
000000
000000
000000
000000
ENDCHAR

STARTCHAR slash
ENCODING 47
SWIDTH 723 0
DWIDTH 18 0
BBX 18 25 0 -5
BITMAP
000000
000000
000000
000000
001F00
001E00
003E00
007C00
007C00
00F800
01F000
01E000
03E000
07C000
078000
0F8000
1F0000
1E0000
3E0000
3C0000
7C0000
000000
000000
000000
000000
ENDCHAR

STARTCHAR zero
ENCODING 48
SWIDTH 723 0
DWIDTH 18 0
BBX 18 25 0 -5
BITMAP
000000
000000
000000
000000
000000
03E000
0FF800
1E3C00
3C1E00
3C1E00
780F00
780F00
780F00
780F00
780F00
3C1E00
3C1E00
1E3C00
0FF800
03E000
000000
000000
000000
000000
000000
ENDCHAR

STARTCHAR one
ENCODING 49
SWIDTH 723 0
DWIDTH 18 0
BBX 18 25 0 -5
BITMAP
000000
000000
000000
000000
000000
00E000
03E000
0FE000
3DE000
31E000
01E000
01E000
01E000
01E000
01E000
01E000
01E000
01E000
1FFE00
1FFE00
000000
000000
000000
000000
000000
ENDCHAR

STARTCHAR two
ENCODING 50
SWIDTH 723 0
DWIDTH 18 0
BBX 18 25 0 -5
BITMAP
000000
000000
000000
000000
000000
0FF000
3FFC00
783E00
701E00
701E00
003C00
007800
00F000
01E000
078000
0F0000
1E0000
3C0E00
7FFE00
7FFE00
000000
000000
000000
000000
000000
ENDCHAR

STARTCHAR three
ENCODING 51
SWIDTH 723 0
DWIDTH 18 0
BBX 18 25 0 -5
BITMAP
000000
000000
000000
000000
000000
1FF000
7FFC00
783E00
001E00
001E00
003C00
07F000
07FC00
003C00
001E00
001E00
001E00
783C00
7FFC00
1FF000
000000
000000
000000
000000
000000
ENDCHAR

STARTCHAR four
ENCODING 52
SWIDTH 723 0
DWIDTH 18 0
BBX 18 25 0 -5
BITMAP
000000
000000
000000
000000
000000
003800
00F800
01F800
03B800
073800
0E3800
1C3800
383800
703800
7FFF00
7FFF00
003800
003800
003800
003800
000000
000000
000000
000000
000000
ENDCHAR

STARTCHAR five
ENCODING 53
SWIDTH 723 0
DWIDTH 18 0
BBX 18 25 0 -5
BITMAP
000000
000000
000000
000000
000000
3FFE00
3FFE00
380000
380000
380000
380000
3FF000
3FFC00
003E00
001E00
001E00
001E00
783E00
7FFC00
0FF000
000000
000000
000000
000000
000000
ENDCHAR

STARTCHAR six
ENCODING 54
SWIDTH 723 0
DWIDTH 18 0
BBX 18 25 0 -5
BITMAP
000000
000000
000000
000000
000000
007C00
03FC00
0F8000
1E0000
3C0000
3C0000
7FF800
7FFE00
7C1E00
780F00
780F00
780F00
3C1E00
3FFE00
0FF800
000000
000000
000000
000000
000000
ENDCHAR

STARTCHAR seven
ENCODING 55
SWIDTH 723 0
DWIDTH 18 0
BBX 18 25 0 -5
BITMAP
000000
000000
000000
000000
000000
7FFF00
7FFF00
000F00
001E00
001E00
003C00
003C00
007800
007800
00F000
00F000
01E000
01E000
03C000
03C000
000000
000000
000000
000000
000000
ENDCHAR

STARTCHAR eight
ENCODING 56
SWIDTH 723 0
DWIDTH 18 0
BBX 18 25 0 -5
BITMAP
000000
000000
000000
000000
000000
07F000
1FFC00
3C1E00
780F00
780F00
3C1E00
0FF800
3FFE00
3C1E00
780F00
780F00
780F00
3C1E00
3FFE00
0FF800
000000
000000
000000
000000
000000
ENDCHAR

STARTCHAR nine
ENCODING 57
SWIDTH 723 0
DWIDTH 18 0
BBX 18 25 0 -5
BITMAP
000000
000000
000000
000000
000000
0FF800
3FFE00
3C1E00
780F00
780F00
780F00
7C1F00
3FFF00
0FFF00
001E00
001E00
003C00
007C00
3FF000
3FC000
000000
000000
000000
000000
000000
ENDCHAR

STARTCHAR colon
ENCODING 58
SWIDTH 723 0
DWIDTH 18 0
BBX 18 25 0 -5
BITMAP
000000
000000
000000
000000
000000
000000
000000
000000
000000
000000
03E000
07F000
03E000
000000
000000
000000
000000
03E000
07F000
03E000
000000
000000
000000
000000
000000
ENDCHAR

STARTCHAR semicolon
ENCODING 59
SWIDTH 723 0
DWIDTH 18 0
BBX 18 25 0 -5
BITMAP
000000
000000
000000
000000
000000
000000
000000
000000
000000
000000
03E000
07F000
03E000
000000
000000
000000
000000
03E000
03E000
07C000
0F8000
0E0000
000000
000000
000000
ENDCHAR

STARTCHAR less
ENCODING 60
SWIDTH 723 0
DWIDTH 18 0
BBX 18 25 0 -5
BITMAP
000000
000000
000000
000000
000000
000000
000000
000000
000E00
003E00
00FC00
03F000
0FC000
1F0000
0F8000
07E000
01F000
007C00
003E00
000E00
000000
000000
000000
000000
000000
ENDCHAR

STARTCHAR equal
ENCODING 61
SWIDTH 723 0
DWIDTH 18 0
BBX 18 25 0 -5
BITMAP
000000
000000
000000
000000
000000
000000
000000
000000
000000
000000
000000
3FFE00
3FFE00
000000
000000
000000
3FFE00
3FFE00
000000
000000
000000
000000
000000
000000
000000
ENDCHAR

STARTCHAR greater
ENCODING 62
SWIDTH 723 0
DWIDTH 18 0
BBX 18 25 0 -5
BITMAP
000000
000000
000000
000000
000000
000000
000000
000000
1C0000
1F0000
0FC000
03F000
00FC00
003E00
007C00
01F800
03E000
0F8000
1F0000
1C0000
000000
000000
000000
000000
000000
ENDCHAR

STARTCHAR question
ENCODING 63
SWIDTH 723 0
DWIDTH 18 0
BBX 18 25 0 -5
BITMAP
000000
000000
000000
000000
000000
0FF800
3FFE00
7C1F00
781F00
003F00
007E00
01F800
03E000
03C000
03C000
000000
000000
03E000
07F000
03E000
000000
000000
000000
000000
000000
ENDCHAR

STARTCHAR at
ENCODING 64
SWIDTH 723 0
DWIDTH 18 0
BBX 18 25 0 -5
BITMAP
000000
000000
000000
000000
000000
07F000
3FFC00
381C00
700E00
700E00
700E00
71FE00
73FE00
739E00
739E00
739E00
73FF00
71F700
700000
700000
380F00
3FFF00
07F800
000000
000000
ENDCHAR

STARTCHAR A
ENCODING 65
SWIDTH 723 0
DWIDTH 18 0
BBX 18 25 0 -5
BITMAP
000000
000000
000000
000000
000000
018000
07E000
07E000
0FF000
1E7800
1C3800
3C3C00
3C3C00
381C00
7FFE00
7FFE00
781E00
781E00
781E00
781E00
000000
000000
000000
000000
000000
ENDCHAR

STARTCHAR B
ENCODING 66
SWIDTH 723 0
DWIDTH 18 0
BBX 18 25 0 -5
BITMAP
000000
000000
000000
000000
000000
7FF000
7FFC00
783E00
781E00
781E00
783E00
7FFC00
7FF800
783C00
781E00
781E00
781E00
783E00
7FFC00
7FF000
000000
000000
000000
000000
000000
ENDCHAR

STARTCHAR C
ENCODING 67
SWIDTH 723 0
DWIDTH 18 0
BBX 18 25 0 -5
BITMAP
000000
000000
000000
000000
000000
07F700
1FFF00
3C0F00
380F00
780000
780000
780000
780000
780000
780000
780000
380000
3C0F00
1FFF00
07F800
000000
000000
000000
000000
000000
ENDCHAR

STARTCHAR D
ENCODING 68
SWIDTH 723 0
DWIDTH 18 0
BBX 18 25 0 -5
BITMAP
000000
000000
000000
000000
000000
7FF000
7FFC00
783E00
781E00
781F00
780F00
780F00
780F00
780F00
780F00
781F00
781E00
783E00
7FFC00
7FF000
000000
000000
000000
000000
000000
ENDCHAR

STARTCHAR E
ENCODING 69
SWIDTH 723 0
DWIDTH 18 0
BBX 18 25 0 -5
BITMAP
000000
000000
000000
000000
000000
7FFE00
7FFE00
780000
780000
780000
780000
7FF800
7FF800
780000
780000
780000
780000
780000
7FFE00
7FFE00
000000
000000
000000
000000
000000
ENDCHAR

STARTCHAR F
ENCODING 70
SWIDTH 723 0
DWIDTH 18 0
BBX 18 25 0 -5
BITMAP
000000
000000
000000
000000
000000
3FFF00
3FFF00
3C0000
3C0000
3C0000
3C0000
3FF800
3FF800
3C0000
3C0000
3C0000
3C0000
3C0000
3C0000
3C0000
000000
000000
000000
000000
000000
ENDCHAR

STARTCHAR G
ENCODING 71
SWIDTH 723 0
DWIDTH 18 0
BBX 18 25 0 -5
BITMAP
000000
000000
000000
000000
000000
07F700
1FFF00
3C0F00
380700
780700
780000
780000
787F00
787F00
780F00
780F00
380F00
3C1F00
1FFF00
07F800
000000
000000
000000
000000
000000
ENDCHAR

STARTCHAR H
ENCODING 72
SWIDTH 723 0
DWIDTH 18 0
BBX 18 25 0 -5
BITMAP
000000
000000
000000
000000
000000
780F00
780F00
780F00
780F00
780F00
780F00
7FFF00
7FFF00
780F00
780F00
780F00
780F00
780F00
780F00
780F00
000000
000000
000000
000000
000000
ENDCHAR

STARTCHAR I
ENCODING 73
SWIDTH 723 0
DWIDTH 18 0
BBX 18 25 0 -5
BITMAP
000000
000000
000000
000000
000000
7FFE00
7FFE00
03C000
03C000
03C000
03C000
03C000
03C000
03C000
03C000
03C000
03C000
03C000
7FFE00
7FFE00
000000
000000
000000
000000
000000
ENDCHAR

STARTCHAR J
ENCODING 74
SWIDTH 723 0
DWIDTH 18 0
BBX 18 25 0 -5
BITMAP
000000
000000
000000
000000
000000
0FFF00
0FFF00
007800
007800
007800
007800
007800
007800
007800
787800
787800
787800
387000
3FF000
0FC000
000000
000000
000000
000000
000000
ENDCHAR

STARTCHAR K
ENCODING 75
SWIDTH 723 0
DWIDTH 18 0
BBX 18 25 0 -5
BITMAP
000000
000000
000000
000000
000000
781E00
783E00
787800
78F000
79E000
7BC000
7F8000
7F8000
7FC000
7BE000
79F800
787C00
783E00
781F00
780F00
000000
000000
000000
000000
000000
ENDCHAR

STARTCHAR L
ENCODING 76
SWIDTH 723 0
DWIDTH 18 0
BBX 18 25 0 -5
BITMAP
000000
000000
000000
000000
000000
0F0000
0F0000
0F0000
0F0000
0F0000
0F0000
0F0000
0F0000
0F0000
0F0000
0F0000
0F0000
0F0000
0FFF00
0FFF00
000000
000000
000000
000000
000000
ENDCHAR

STARTCHAR M
ENCODING 77
SWIDTH 723 0
DWIDTH 18 0
BBX 18 25 0 -5
BITMAP
000000
000000
000000
000000
000000
780F00
780F00
7C1F00
7C1F00
7E3F00
7E3F00
7F7F00
7BEF00
7BEF00
79CF00
79CF00
79CF00
780F00
780F00
780F00
000000
000000
000000
000000
000000
ENDCHAR

STARTCHAR N
ENCODING 78
SWIDTH 723 0
DWIDTH 18 0
BBX 18 25 0 -5
BITMAP
000000
000000
000000
000000
000000
7C0F00
7C0F00
7E0F00
7F0F00
7F0F00
7F8F00
7B8F00
79CF00
78EF00
78FF00
787F00
783F00
783F00
781F00
781F00
000000
000000
000000
000000
000000
ENDCHAR

STARTCHAR O
ENCODING 79
SWIDTH 723 0
DWIDTH 18 0
BBX 18 25 0 -5
BITMAP
000000
000000
000000
000000
000000
07F000
3FFE00
3C1E00
780F00
780F00
780F00
780F00
780F00
780F00
780F00
780F00
780F00
3C1E00
3FFE00
07F000
000000
000000
000000
000000
000000
ENDCHAR

STARTCHAR P
ENCODING 80
SWIDTH 723 0
DWIDTH 18 0
BBX 18 25 0 -5
BITMAP
000000
000000
000000
000000
000000
7FF800
7FFE00
781F00
780F00
780F00
780F00
781F00
7FFE00
7FF800
780000
780000
780000
780000
780000
780000
000000
000000
000000
000000
000000
ENDCHAR

STARTCHAR Q
ENCODING 81
SWIDTH 723 0
DWIDTH 18 0
BBX 18 25 0 -5
BITMAP
000000
000000
000000
000000
000000
07F000
3FFE00
3C1E00
780F00
780F00
780F00
780F00
780F00
780F00
780F00
780F00
780F00
3C1E00
3FFE00
07F000
0E0000
1FC700
3BFF00
307E00
000000
ENDCHAR

STARTCHAR R
ENCODING 82
SWIDTH 723 0
DWIDTH 18 0
BBX 18 25 0 -5
BITMAP
000000
000000
000000
000000
000000
7FF800
7FFE00
781F00
780F00
780F00
780F00
781E00
7FFC00
7FF000
78F000
787800
783800
783C00
781F00
781F00
000000
000000
000000
000000
000000
ENDCHAR

STARTCHAR S
ENCODING 83
SWIDTH 723 0
DWIDTH 18 0
BBX 18 25 0 -5
BITMAP
000000
000000
000000
000000
000000
07EF00
1FFF00
3C0F00
780F00
780000
7C0000
3FC000
0FF800
01FE00
003E00
001F00
781F00
783F00
7FFE00
77F800
000000
000000
000000
000000
000000
ENDCHAR

STARTCHAR T
ENCODING 84
SWIDTH 723 0
DWIDTH 18 0
BBX 18 25 0 -5
BITMAP
000000
000000
000000
000000
000000
3FFF00
3FFF00
01E000
01E000
01E000
01E000
01E000
01E000
01E000
01E000
01E000
01E000
01E000
01E000
01E000
000000
000000
000000
000000
000000
ENDCHAR

STARTCHAR U
ENCODING 85
SWIDTH 723 0
DWIDTH 18 0
BBX 18 25 0 -5
BITMAP
000000
000000
000000
000000
000000
780F00
780F00
780F00
780F00
780F00
780F00
780F00
780F00
780F00
780F00
780F00
780F00
7C1F00
3FFE00
0FF800
000000
000000
000000
000000
000000
ENDCHAR

STARTCHAR V
ENCODING 86
SWIDTH 723 0
DWIDTH 18 0
BBX 18 25 0 -5
BITMAP
000000
000000
000000
000000
000000
780F00
780F00
780F00
780F00
780F00
780F00
780F00
780F00
380E00
3C1E00
3C1E00
1E3C00
0FF800
07F000
01C000
000000
000000
000000
000000
000000
ENDCHAR

STARTCHAR W
ENCODING 87
SWIDTH 723 0
DWIDTH 18 0
BBX 18 25 0 -5
BITMAP
000000
000000
000000
000000
000000
780F00
780F00
780F00
780F00
780F00
79CF00
79CF00
79CF00
7BEF00
7FFF00
7E3F00
7C1F00
3C1E00
380E00
380E00
000000
000000
000000
000000
000000
ENDCHAR

STARTCHAR X
ENCODING 88
SWIDTH 723 0
DWIDTH 18 0
BBX 18 25 0 -5
BITMAP
000000
000000
000000
000000
000000
780F00
7C1F00
3C1E00
1E3C00
0F7800
07F000
07F000
03E000
07F000
0FF800
0F7800
1E3C00
3E3E00
7C1F00
7C1F00
000000
000000
000000
000000
000000
ENDCHAR

STARTCHAR Y
ENCODING 89
SWIDTH 723 0
DWIDTH 18 0
BBX 18 25 0 -5
BITMAP
000000
000000
000000
000000
000000
7C0F80
7C0F80
3C0F00
3E1F00
1E1E00
0F3C00
07F800
03F000
01E000
01E000
01E000
01E000
01E000
01E000
01E000
000000
000000
000000
000000
000000
ENDCHAR

STARTCHAR Z
ENCODING 90
SWIDTH 723 0
DWIDTH 18 0
BBX 18 25 0 -5
BITMAP
000000
000000
000000
000000
000000
7FFE00
7FFE00
703C00
707800
70F000
01E000
01E000
03C000
078000
0F0000
0F0700
1E0700
3C0700
7FFF00
7FFF00
000000
000000
000000
000000
000000
ENDCHAR

STARTCHAR bracketleft
ENCODING 91
SWIDTH 723 0
DWIDTH 18 0
BBX 18 25 0 -5
BITMAP
000000
000000
000000
000000
07F000
07F000
078000
078000
078000
078000
078000
078000
078000
078000
078000
078000
078000
078000
078000
078000
078000
07F000
07F000
000000
000000
ENDCHAR

STARTCHAR backslash
ENCODING 92
SWIDTH 723 0
DWIDTH 18 0
BBX 18 25 0 -5
BITMAP
000000
000000
000000
000000
7C0000
3C0000
3E0000
1F0000
1F0000
0F8000
07C000
03C000
03E000
01F000
00F000
00F800
007C00
003C00
003E00
001E00
001F00
000000
000000
000000
000000
ENDCHAR

STARTCHAR bracketright
ENCODING 93
SWIDTH 723 0
DWIDTH 18 0
BBX 18 25 0 -5
BITMAP
000000
000000
000000
000000
0FE000
0FE000
01E000
01E000
01E000
01E000
01E000
01E000
01E000
01E000
01E000
01E000
01E000
01E000
01E000
01E000
01E000
0FE000
0FE000
000000
000000
ENDCHAR

STARTCHAR asciicircum
ENCODING 94
SWIDTH 723 0
DWIDTH 18 0
BBX 18 25 0 -5
BITMAP
000000
000000
000000
000000
000000
000000
000000
000000
03E000
0FF800
1E3C00
3C1E00
380E00
000000
000000
000000
000000
000000
000000
000000
000000
000000
000000
000000
000000
ENDCHAR

STARTCHAR underscore
ENCODING 95
SWIDTH 723 0
DWIDTH 18 0
BBX 18 25 0 -5
BITMAP
000000
000000
000000
000000
000000
000000
000000
000000
000000
000000
000000
000000
000000
000000
000000
000000
000000
000000
FFFF80
FFFF80
000000
000000
000000
000000
000000
ENDCHAR

STARTCHAR quoteleft
ENCODING 96
SWIDTH 723 0
DWIDTH 18 0
BBX 18 25 0 -5
BITMAP
000000
000000
000000
000000
1F0000
0F8000
078000
03C000
01C000
01E000
000000
000000
000000
000000
000000
000000
000000
000000
000000
000000
000000
000000
000000
000000
000000
ENDCHAR

STARTCHAR a
ENCODING 97
SWIDTH 723 0
DWIDTH 18 0
BBX 18 25 0 -5
BITMAP
000000
000000
000000
000000
000000
000000
000000
000000
1FF000
3FFC00
003C00
001E00
0FFE00
3FFE00
7E1E00
7C1E00
7C1E00
7E3E00
3FFE00
0FDE00
000000
000000
000000
000000
000000
ENDCHAR

STARTCHAR b
ENCODING 98
SWIDTH 723 0
DWIDTH 18 0
BBX 18 25 0 -5
BITMAP
000000
000000
000000
000000
780000
780000
780000
780000
7BF000
7FFC00
7C3C00
781E00
781E00
781E00
781E00
781E00
781E00
7C3C00
7FFC00
7BF000
000000
000000
000000
000000
000000
ENDCHAR

STARTCHAR c
ENCODING 99
SWIDTH 723 0
DWIDTH 18 0
BBX 18 25 0 -5
BITMAP
000000
000000
000000
000000
000000
000000
000000
000000
0FEE00
3FFE00
3C3E00
781E00
780000
780000
780000
780000
780000
3C1E00
3FFE00
0FF800
000000
000000
000000
000000
000000
ENDCHAR

STARTCHAR d
ENCODING 100
SWIDTH 723 0
DWIDTH 18 0
BBX 18 25 0 -5
BITMAP
000000
000000
000000
000000
001E00
001E00
001E00
001E00
0FDE00
3FFE00
3C3E00
781E00
781E00
781E00
781E00
781E00
781E00
3C3E00
3FFE00
0FDE00
000000
000000
000000
000000
000000
ENDCHAR

STARTCHAR e
ENCODING 101
SWIDTH 723 0
DWIDTH 18 0
BBX 18 25 0 -5
BITMAP
000000
000000
000000
000000
000000
000000
000000
000000
0FF000
3FFC00
3C3C00
781E00
781E00
7FFE00
7FFE00
780000
780000
3C1E00
3FFE00
0FF800
000000
000000
000000
000000
000000
ENDCHAR

STARTCHAR f
ENCODING 102
SWIDTH 723 0
DWIDTH 18 0
BBX 18 25 0 -5
BITMAP
000000
000000
000000
000000
01FF00
03FF00
03C000
03C000
3FFE00
3FFE00
03C000
03C000
03C000
03C000
03C000
03C000
03C000
03C000
1FF800
1FF800
000000
000000
000000
000000
000000
ENDCHAR

STARTCHAR g
ENCODING 103
SWIDTH 723 0
DWIDTH 18 0
BBX 18 25 0 -5
BITMAP
000000
000000
000000
000000
000000
000000
000000
000000
0FDE00
3FFE00
3C3E00
781E00
781E00
781E00
781E00
781E00
781E00
3C3E00
3FFE00
0F9E00
001E00
001E00
003C00
0FFC00
0FF000
ENDCHAR

STARTCHAR h
ENCODING 104
SWIDTH 723 0
DWIDTH 18 0
BBX 18 25 0 -5
BITMAP
000000
000000
000000
000000
780000
780000
780000
780000
79F000
7FFC00
7E3C00
7C1E00
781E00
781E00
781E00
781E00
781E00
781E00
781E00
781E00
000000
000000
000000
000000
000000
ENDCHAR

STARTCHAR i
ENCODING 105
SWIDTH 723 0
DWIDTH 18 0
BBX 18 25 0 -5
BITMAP
000000
000000
000000
01E000
01E000
01E000
000000
000000
1FE000
1FE000
01E000
01E000
01E000
01E000
01E000
01E000
01E000
01E000
3FFF00
3FFF00
000000
000000
000000
000000
000000
ENDCHAR

STARTCHAR j
ENCODING 106
SWIDTH 723 0
DWIDTH 18 0
BBX 18 25 0 -5
BITMAP
000000
000000
000000
00F000
00F000
00F000
000000
000000
0FF000
0FF000
00F000
00F000
00F000
00F000
00F000
00F000
00F000
00F000
00F000
00F000
00F000
00F000
01E000
3FE000
3F0000
ENDCHAR

STARTCHAR k
ENCODING 107
SWIDTH 723 0
DWIDTH 18 0
BBX 18 25 0 -5
BITMAP
000000
000000
000000
000000
780000
780000
780000
780000
781E00
783E00
787800
79F000
7BC000
7F8000
7FC000
7FE000
79F000
78FC00
783E00
781E00
000000
000000
000000
000000
000000
ENDCHAR

STARTCHAR l
ENCODING 108
SWIDTH 723 0
DWIDTH 18 0
BBX 18 25 0 -5
BITMAP
000000
000000
000000
000000
1FE000
1FE000
01E000
01E000
01E000
01E000
01E000
01E000
01E000
01E000
01E000
01E000
01E000
01E000
1FFE00
1FFE00
000000
000000
000000
000000
000000
ENDCHAR

STARTCHAR m
ENCODING 109
SWIDTH 723 0
DWIDTH 18 0
BBX 18 25 0 -5
BITMAP
000000
000000
000000
000000
000000
000000
000000
000000
679E00
7FFF00
7BEF80
79E780
79E780
79E780
79E780
79E780
79E780
79E780
79E780
79E780
000000
000000
000000
000000
000000
ENDCHAR

STARTCHAR n
ENCODING 110
SWIDTH 723 0
DWIDTH 18 0
BBX 18 25 0 -5
BITMAP
000000
000000
000000
000000
000000
000000
000000
000000
79F000
7FFC00
7E3C00
7C1E00
781E00
781E00
781E00
781E00
781E00
781E00
781E00
781E00
000000
000000
000000
000000
000000
ENDCHAR

STARTCHAR o
ENCODING 111
SWIDTH 723 0
DWIDTH 18 0
BBX 18 25 0 -5
BITMAP
000000
000000
000000
000000
000000
000000
000000
000000
0FF000
3FFC00
3C3C00
781E00
781E00
781E00
781E00
781E00
781E00
3C3C00
3FFC00
0FF000
000000
000000
000000
000000
000000
ENDCHAR

STARTCHAR p
ENCODING 112
SWIDTH 723 0
DWIDTH 18 0
BBX 18 25 0 -5
BITMAP
000000
000000
000000
000000
000000
000000
000000
000000
7BF000
7FFC00
7C3C00
781E00
781E00
781E00
781E00
781E00
781E00
7C3C00
7FFC00
7BF000
780000
780000
780000
780000
780000
ENDCHAR

STARTCHAR q
ENCODING 113
SWIDTH 723 0
DWIDTH 18 0
BBX 18 25 0 -5
BITMAP
000000
000000
000000
000000
000000
000000
000000
000000
0FDE00
3FFE00
3C3E00
781E00
781E00
781E00
781E00
781E00
781E00
3C3E00
3FFE00
0FDE00
001E00
001E00
001E00
001E00
001E00
ENDCHAR

STARTCHAR r
ENCODING 114
SWIDTH 723 0
DWIDTH 18 0
BBX 18 25 0 -5
BITMAP
000000
000000
000000
000000
000000
000000
000000
000000
1E7E00
1FFF00
1F8F00
1E0000
1E0000
1E0000
1E0000
1E0000
1E0000
1E0000
1E0000
1E0000
000000
000000
000000
000000
000000
ENDCHAR

STARTCHAR s
ENCODING 115
SWIDTH 723 0
DWIDTH 18 0
BBX 18 25 0 -5
BITMAP
000000
000000
000000
000000
000000
000000
000000
000000
0FEE00
3FFE00
7C1E00
7C0000
7F8000
3FF000
07FC00
00FE00
003E00
703E00
7FFC00
7FF000
000000
000000
000000
000000
000000
ENDCHAR

STARTCHAR t
ENCODING 116
SWIDTH 723 0
DWIDTH 18 0
BBX 18 25 0 -5
BITMAP
000000
000000
000000
000000
0F0000
0F0000
0F0000
0F0000
7FFC00
7FFC00
0F0000
0F0000
0F0000
0F0000
0F0000
0F0000
0F0000
0F8F00
07FF00
03FC00
000000
000000
000000
000000
000000
ENDCHAR

STARTCHAR u
ENCODING 117
SWIDTH 723 0
DWIDTH 18 0
BBX 18 25 0 -5
BITMAP
000000
000000
000000
000000
000000
000000
000000
000000
781E00
781E00
781E00
781E00
781E00
781E00
781E00
781E00
781E00
3C3E00
3FFE00
07DE00
000000
000000
000000
000000
000000
ENDCHAR

STARTCHAR v
ENCODING 118
SWIDTH 723 0
DWIDTH 18 0
BBX 18 25 0 -5
BITMAP
000000
000000
000000
000000
000000
000000
000000
000000
780F00
780F00
7C1F00
3C1E00
3C1E00
1E3C00
0E3800
0F7800
07F000
07F000
03E000
03E000
000000
000000
000000
000000
000000
ENDCHAR

STARTCHAR w
ENCODING 119
SWIDTH 723 0
DWIDTH 18 0
BBX 18 25 0 -5
BITMAP
000000
000000
000000
000000
000000
000000
000000
000000
780F00
780F00
79CF00
79CF00
79CF00
79CF00
79CF00
3BEE00
3BEE00
3F7E00
1E3C00
1E3C00
000000
000000
000000
000000
000000
ENDCHAR

STARTCHAR x
ENCODING 120
SWIDTH 723 0
DWIDTH 18 0
BBX 18 25 0 -5
BITMAP
000000
000000
000000
000000
000000
000000
000000
000000
3C1E00
3E3E00
1E3C00
0F7800
07F000
03E000
07F000
07F000
0F7800
1E3C00
3C1E00
3C1E00
000000
000000
000000
000000
000000
ENDCHAR

STARTCHAR y
ENCODING 121
SWIDTH 723 0
DWIDTH 18 0
BBX 18 25 0 -5
BITMAP
000000
000000
000000
000000
000000
000000
000000
000000
7C1F00
7C1F00
3C1E00
3E3E00
1E3C00
1E3800
0E3800
077000
077000
07F000
03E000
03E000
03C000
03C000
078000
078000
078000
ENDCHAR

STARTCHAR z
ENCODING 122
SWIDTH 723 0
DWIDTH 18 0
BBX 18 25 0 -5
BITMAP
000000
000000
000000
000000
000000
000000
000000
000000
3FFE00
3FFE00
003E00
007C00
00F800
03F000
07E000
0F8000
1F0000
3E0000
3FFE00
3FFE00
000000
000000
000000
000000
000000
ENDCHAR

STARTCHAR braceleft
ENCODING 123
SWIDTH 723 0
DWIDTH 18 0
BBX 18 25 0 -5
BITMAP
000000
000000
000000
000000
007800
00F800
00E000
01E000
01E000
01E000
01E000
01C000
03C000
0F8000
03C000
01C000
01E000
01E000
01E000
01E000
00E000
00F800
007800
000000
000000
ENDCHAR

STARTCHAR bar
ENCODING 124
SWIDTH 723 0
DWIDTH 18 0
BBX 18 25 0 -5
BITMAP
000000
000000
000000
000000
01E000
01E000
01E000
01E000
01E000
01E000
01E000
01E000
01E000
01E000
01E000
01E000
01E000
01E000
01E000
01E000
01E000
01E000
000000
000000
000000
ENDCHAR

STARTCHAR braceright
ENCODING 125
SWIDTH 723 0
DWIDTH 18 0
BBX 18 25 0 -5
BITMAP
000000
000000
000000
000000
0F0000
0F8000
038000
03C000
03C000
03C000
03C000
01C000
01E000
00F800
01E000
01C000
03C000
03C000
03C000
03C000
038000
0F8000
0F0000
000000
000000
ENDCHAR

STARTCHAR asciitilde
ENCODING 126
SWIDTH 723 0
DWIDTH 18 0
BBX 18 25 0 -5
BITMAP
000000
000000
000000
000000
000000
000000
000000
000000
0F0E00
1F8E00
3DDE00
38FC00
387800
000000
000000
000000
000000
000000
000000
000000
000000
000000
000000
000000
000000
ENDCHAR

STARTCHAR space
ENCODING 160
SWIDTH 723 0
DWIDTH 18 0
BBX 18 25 0 -5
BITMAP
000000
000000
000000
000000
000000
000000
000000
000000
000000
000000
000000
000000
000000
000000
000000
000000
000000
000000
000000
000000
000000
000000
000000
000000
000000
ENDCHAR

STARTCHAR Aogonek
ENCODING 161
SWIDTH 723 0
DWIDTH 18 0
BBX 18 25 0 -5
BITMAP
000000
000000
000000
000000
000000
018000
07E000
07E000
0FF000
1E7800
1C3800
3C3C00
3C3C00
381C00
7FFE00
7FFE00
781E00
781E00
781E00
781E00
003C00
003DC0
003FC0
001F80
000000
ENDCHAR

STARTCHAR afii240
ENCODING 162
SWIDTH 723 0
DWIDTH 18 0
BBX 18 25 0 -5
BITMAP
000000
000000
000000
000000
000000
000000
000000
000000
000000
3F1E00
3F3E00
1E7800
1EF000
1FE000
1FC000
1FE000
1EF000
1E7800
3F3E00
3F1E00
000000
000000
000000
000000
000000
ENDCHAR

STARTCHAR Rcommaaccent
ENCODING 163
SWIDTH 723 0
DWIDTH 18 0
BBX 18 25 0 -5
BITMAP
000000
000000
000000
000000
000000
7FF800
7FFE00
781F00
780F00
780F00
780F00
781E00
7FFC00
7FF000
78F000
787800
783800
783C00
781F00
781F00
018000
03C000
03C000
01C000
038000
ENDCHAR

STARTCHAR currency
ENCODING 164
SWIDTH 723 0
DWIDTH 18 0
BBX 18 25 0 -5
BITMAP
000000
000000
000000
000000
000000
000000
000000
780F00
7FFF00
0FF800
1E3C00
1C1C00
1C1C00
1C1C00
1E3C00
0FF800
7FFF00
780F00
000000
000000
000000
000000
000000
000000
000000
ENDCHAR

STARTCHAR Itilde
ENCODING 165
SWIDTH 723 0
DWIDTH 18 0
BBX 18 25 0 -5
BITMAP
0F0C00
1F8C00
31F800
30F000
000000
7FFE00
7FFE00
03C000
03C000
03C000
03C000
03C000
03C000
03C000
03C000
03C000
03C000
03C000
7FFE00
7FFE00
000000
000000
000000
000000
000000
ENDCHAR

STARTCHAR Lcommaaccent
ENCODING 166
SWIDTH 723 0
DWIDTH 18 0
BBX 18 25 0 -5
BITMAP
000000
000000
000000
000000
000000
0F0000
0F0000
0F0000
0F0000
0F0000
0F0000
0F0000
0F0000
0F0000
0F0000
0F0000
0F0000
0F0000
0FFF00
0FFF00
003000
007800
007800
003800
007000
ENDCHAR

STARTCHAR section
ENCODING 167
SWIDTH 723 0
DWIDTH 18 0
BBX 18 25 0 -5
BITMAP
000000
000000
000000
000000
000000
07F000
1FFC00
3C1C00
3C1C00
1F0000
1FC000
3FE000
38F800
3C3C00
1E1E00
0F8E00
07FE00
01FC00
007800
383C00
3C7C00
3FF800
0FE000
000000
000000
ENDCHAR

STARTCHAR hungarumlaut
ENCODING 168
SWIDTH 723 0
DWIDTH 18 0
BBX 18 25 0 -5
BITMAP
000000
000000
000000
07C7C0
1F1F00
7C7C00
000000
000000
000000
000000
000000
000000
000000
000000
000000
000000
000000
000000
000000
000000
000000
000000
000000
000000
000000
ENDCHAR

STARTCHAR Scaron
ENCODING 169
SWIDTH 723 0
DWIDTH 18 0
BBX 18 25 0 -5
BITMAP
0E3800
0F7800
07F000
03E000
000000
07EF00
1FFF00
3C0F00
780F00
780000
7C0000
3FC000
0FF800
01FE00
003E00
001F00
781F00
783F00
7FFE00
77F800
000000
000000
000000
000000
000000
ENDCHAR

STARTCHAR Emacron
ENCODING 170
SWIDTH 723 0
DWIDTH 18 0
BBX 18 25 0 -5
BITMAP
000000
1FFC00
1FFC00
000000
000000
7FFE00
7FFE00
780000
780000
780000
780000
7FF800
7FF800
780000
780000
780000
780000
780000
7FFE00
7FFE00
000000
000000
000000
000000
000000
ENDCHAR

STARTCHAR Gcommaaccent
ENCODING 171
SWIDTH 723 0
DWIDTH 18 0
BBX 18 25 0 -5
BITMAP
000000
000000
000000
000000
000000
07F700
1FFF00
3C0F00
380700
780700
780000
780000
787F00
787F00
780F00
780F00
380F00
3C1F00
1FFF00
07F800
00C000
01E000
01E000
00E000
01C000
ENDCHAR

STARTCHAR afii237
ENCODING 172
SWIDTH 723 0
DWIDTH 18 0
BBX 18 25 0 -5
BITMAP
000000
000000
000000
000000
000000
3FFF00
3FFF00
01E000
01E000
01E000
01E000
01E000
0FFC00
0FFC00
01E000
01E000
01E000
01E000
01E000
01E000
000000
000000
000000
000000
000000
ENDCHAR

STARTCHAR hyphen
ENCODING 173
SWIDTH 723 0
DWIDTH 18 0
BBX 18 25 0 -5
BITMAP
000000
000000
000000
000000
000000
000000
000000
000000
000000
000000
000000
000000
000000
0FF800
0FF800
0FF800
000000
000000
000000
000000
000000
000000
000000
000000
000000
ENDCHAR

STARTCHAR Zcaron
ENCODING 174
SWIDTH 723 0
DWIDTH 18 0
BBX 18 25 0 -5
BITMAP
0E3800
0F7800
07F000
03E000
000000
7FFE00
7FFE00
703C00
707800
70F000
01E000
01E000
03C000
078000
0F0000
0F0700
1E0700
3C0700
7FFF00
7FFF00
000000
000000
000000
000000
000000
ENDCHAR

STARTCHAR macron
ENCODING 175
SWIDTH 723 0
DWIDTH 18 0
BBX 18 25 0 -5
BITMAP
000000
000000
000000
000000
1FFC00
1FFC00
000000
000000
000000
000000
000000
000000
000000
000000
000000
000000
000000
000000
000000
000000
000000
000000
000000
000000
000000
ENDCHAR

STARTCHAR degree
ENCODING 176
SWIDTH 723 0
DWIDTH 18 0
BBX 18 25 0 -5
BITMAP
000000
000000
000000
000000
000000
0FF000
3FFC00
781E00
781E00
781E00
781E00
3FFC00
0FF000
000000
000000
000000
000000
000000
000000
000000
000000
000000
000000
000000
000000
ENDCHAR

STARTCHAR aogonek
ENCODING 177
SWIDTH 723 0
DWIDTH 18 0
BBX 18 25 0 -5
BITMAP
000000
000000
000000
000000
000000
000000
000000
000000
1FF000
3FFC00
003C00
001E00
0FFE00
3FFE00
7E1E00
7C1E00
7C1E00
7E3E00
3FFE00
0FDE00
003C00
003DC0
003FC0
001F80
000000
ENDCHAR

STARTCHAR ogonek
ENCODING 178
SWIDTH 723 0
DWIDTH 18 0
BBX 18 25 0 -5
BITMAP
000000
000000
000000
000000
000000
000000
000000
000000
000000
000000
000000
000000
000000
000000
000000
000000
000000
000000
000000
03C000
078000
07B800
07F800
03F000
000000
ENDCHAR

STARTCHAR rcommaaccent
ENCODING 179
SWIDTH 723 0
DWIDTH 18 0
BBX 18 25 0 -5
BITMAP
000000
000000
000000
000000
000000
000000
000000
000000
1E7E00
1FFF00
1F8F00
1E0000
1E0000
1E0000
1E0000
1E0000
1E0000
1E0000
1E0000
1E0000
060000
0F0000
0F0000
070000
0E0000
ENDCHAR

STARTCHAR acute
ENCODING 180
SWIDTH 723 0
DWIDTH 18 0
BBX 18 25 0 -5
BITMAP
000000
000000
000000
007C00
01F000
07C000
000000
000000
000000
000000
000000
000000
000000
000000
000000
000000
000000
000000
000000
000000
000000
000000
000000
000000
000000
ENDCHAR

STARTCHAR itilde
ENCODING 181
SWIDTH 723 0
DWIDTH 18 0
BBX 18 25 0 -5
BITMAP
000000
000000
0F0C00
1F8C00
31F800
30F000
000000
000000
1FE000
1FE000
01E000
01E000
01E000
01E000
01E000
01E000
01E000
01E000
3FFF00
3FFF00
000000
000000
000000
000000
000000
ENDCHAR

STARTCHAR lcommaaccent
ENCODING 182
SWIDTH 723 0
DWIDTH 18 0
BBX 18 25 0 -5
BITMAP
000000
000000
000000
000000
1FE000
1FE000
01E000
01E000
01E000
01E000
01E000
01E000
01E000
01E000
01E000
01E000
01E000
01E000
1FFE00
1FFE00
00C000
01E000
01E000
00E000
01C000
ENDCHAR

STARTCHAR caron
ENCODING 183
SWIDTH 723 0
DWIDTH 18 0
BBX 18 25 0 -5
BITMAP
000000
000000
0E3800
0F7800
07F000
03E000
000000
000000
000000
000000
000000
000000
000000
000000
000000
000000
000000
000000
000000
000000
000000
000000
000000
000000
000000
ENDCHAR

STARTCHAR commaaccent
ENCODING 184
SWIDTH 723 0
DWIDTH 18 0
BBX 18 25 0 -5
BITMAP
000000
000000
000000
000000
000000
000000
000000
000000
000000
000000
000000
000000
000000
000000
000000
000000
000000
000000
000000
000000
00C000
01E000
01E000
00E000
01C000
ENDCHAR

STARTCHAR scaron
ENCODING 185
SWIDTH 723 0
DWIDTH 18 0
BBX 18 25 0 -5
BITMAP
000000
000000
0E3800
0F7800
07F000
03E000
000000
000000
0FEE00
3FFE00
7C1E00
7C0000
7F8000
3FF000
07FC00
00FE00
003E00
703E00
7FFC00
7FF000
000000
000000
000000
000000
000000
ENDCHAR

STARTCHAR emacron
ENCODING 186
SWIDTH 723 0
DWIDTH 18 0
BBX 18 25 0 -5
BITMAP
000000
000000
000000
000000
1FFC00
1FFC00
000000
000000
0FF000
3FFC00
3C3C00
781E00
781E00
7FFE00
7FFE00
780000
780000
3C1E00
3FFE00
0FF800
000000
000000
000000
000000
000000
ENDCHAR

STARTCHAR gcommaaccent
ENCODING 187
SWIDTH 723 0
DWIDTH 18 0
BBX 18 25 0 -5
BITMAP
000000
01C000
038000
03C000
03C000
018000
000000
000000
0FDE00
3FFE00
3C3E00
781E00
781E00
781E00
781E00
781E00
781E00
3C3E00
3FFE00
0F9E00
001E00
001E00
003C00
0FFC00
0FF000
ENDCHAR

STARTCHAR afii253
ENCODING 188
SWIDTH 723 0
DWIDTH 18 0
BBX 18 25 0 -5
BITMAP
000000
000000
000000
000000
0F0000
0F0000
0F0000
0F0000
7FFC00
7FFC00
0F0000
0F0000
7FFC00
7FFC00
0F0000
0F0000
0F0000
0F8F00
07FF00
03FC00
000000
000000
000000
000000
000000
ENDCHAR

STARTCHAR afii238
ENCODING 189
SWIDTH 723 0
DWIDTH 18 0
BBX 18 25 0 -5
BITMAP
000000
000000
000000
000000
000000
1E7C00
1FFF00
1F8F00
1F0780
1E0780
1E0780
1E0780
1E0780
1E0780
1E0780
1E0780
1E0780
1E0F00
1E7F00
1E7C00
000000
000000
000000
000000
000000
ENDCHAR

STARTCHAR zcaron
ENCODING 190
SWIDTH 723 0
DWIDTH 18 0
BBX 18 25 0 -5
BITMAP
000000
000000
0E3800
0F7800
07F000
03E000
000000
000000
3FFE00
3FFE00
003E00
007C00
00F800
03F000
07E000
0F8000
1F0000
3E0000
3FFE00
3FFE00
000000
000000
000000
000000
000000
ENDCHAR

STARTCHAR afii254
ENCODING 191
SWIDTH 723 0
DWIDTH 18 0
BBX 18 25 0 -5
BITMAP
000000
000000
000000
000000
000000
000000
000000
000000
79F000
7FFC00
7E3C00
7C1E00
781E00
781E00
781E00
781E00
781E00
781E00
781E00
781E00
001E00
003C00
07FC00
03F000
000000
ENDCHAR

STARTCHAR Amacron
ENCODING 192
SWIDTH 723 0
DWIDTH 18 0
BBX 18 25 0 -5
BITMAP
000000
1FFC00
1FFC00
000000
000000
018000
07E000
07E000
0FF000
1E7800
1C3800
3C3C00
3C3C00
381C00
7FFE00
7FFE00
781E00
781E00
781E00
781E00
000000
000000
000000
000000
000000
ENDCHAR

STARTCHAR Aacute
ENCODING 193
SWIDTH 723 0
DWIDTH 18 0
BBX 18 25 0 -5
BITMAP
007C00
01F000
07C000
000000
000000
018000
07E000
07E000
0FF000
1E7800
1C3800
3C3C00
3C3C00
381C00
7FFE00
7FFE00
781E00
781E00
781E00
781E00
000000
000000
000000
000000
000000
ENDCHAR

STARTCHAR Acircumflex
ENCODING 194
SWIDTH 723 0
DWIDTH 18 0
BBX 18 25 0 -5
BITMAP
03E000
07F000
0E3800
0C1800
000000
018000
07E000
07E000
0FF000
1E7800
1C3800
3C3C00
3C3C00
381C00
7FFE00
7FFE00
781E00
781E00
781E00
781E00
000000
000000
000000
000000
000000
ENDCHAR

STARTCHAR Atilde
ENCODING 195
SWIDTH 723 0
DWIDTH 18 0
BBX 18 25 0 -5
BITMAP
0F0C00
1F8C00
31F800
30F000
000000
018000
07E000
07E000
0FF000
1E7800
1C3800
3C3C00
3C3C00
381C00
7FFE00
7FFE00
781E00
781E00
781E00
781E00
000000
000000
000000
000000
000000
ENDCHAR

STARTCHAR Adieresis
ENCODING 196
SWIDTH 723 0
DWIDTH 18 0
BBX 18 25 0 -5
BITMAP
3C3C00
3C3C00
3C3C00
000000
000000
018000
07E000
07E000
0FF000
1E7800
1C3800
3C3C00
3C3C00
381C00
7FFE00
7FFE00
781E00
781E00
781E00
781E00
000000
000000
000000
000000
000000
ENDCHAR

STARTCHAR Aring
ENCODING 197
SWIDTH 723 0
DWIDTH 18 0
BBX 18 25 0 -5
BITMAP
03C000
0E7000
0E7000
0E7000
03C000
018000
07E000
07E000
0FF000
1E7800
1C3800
3C3C00
3C3C00
381C00
7FFE00
7FFE00
781E00
781E00
781E00
781E00
000000
000000
000000
000000
000000
ENDCHAR

STARTCHAR AE
ENCODING 198
SWIDTH 723 0
DWIDTH 18 0
BBX 18 25 0 -5
BITMAP
000000
000000
000000
000000
000000
03FF80
07FF80
0FF000
1CF000
1CF000
38F000
38FF80
70FF80
70F000
7FF000
FFF000
F0F000
F0F000
F0FF80
F0FF80
000000
000000
000000
000000
000000
ENDCHAR

STARTCHAR Iogonek
ENCODING 199
SWIDTH 723 0
DWIDTH 18 0
BBX 18 25 0 -5
BITMAP
000000
000000
000000
000000
000000
7FFE00
7FFE00
03C000
03C000
03C000
03C000
03C000
03C000
03C000
03C000
03C000
03C000
03C000
7FFE00
7FFE00
01E000
01EE00
01FE00
00FC00
000000
ENDCHAR

STARTCHAR Ccaron
ENCODING 200
SWIDTH 723 0
DWIDTH 18 0
BBX 18 25 0 -5
BITMAP
0E3800
0F7800
07F000
03E000
000000
07F700
1FFF00
3C0F00
380F00
780000
780000
780000
780000
780000
780000
780000
380000
3C0F00
1FFF00
07F800
000000
000000
000000
000000
000000
ENDCHAR

STARTCHAR Eacute
ENCODING 201
SWIDTH 723 0
DWIDTH 18 0
BBX 18 25 0 -5
BITMAP
003E00
00F800
03E000
000000
000000
7FFE00
7FFE00
780000
780000
780000
780000
7FF800
7FF800
780000
780000
780000
780000
780000
7FFE00
7FFE00
000000
000000
000000
000000
000000
ENDCHAR

STARTCHAR Eogonek
ENCODING 202
SWIDTH 723 0
DWIDTH 18 0
BBX 18 25 0 -5
BITMAP
000000
000000
000000
000000
000000
7FFE00
7FFE00
780000
780000
780000
780000
7FF800
7FF800
780000
780000
780000
780000
780000
7FFE00
7FFE00
007800
007B80
007F80
003F00
000000
ENDCHAR

STARTCHAR Edieresis
ENCODING 203
SWIDTH 723 0
DWIDTH 18 0
BBX 18 25 0 -5
BITMAP
3C3C00
3C3C00
3C3C00
000000
000000
7FFE00
7FFE00
780000
780000
780000
780000
7FF800
7FF800
780000
780000
780000
780000
780000
7FFE00
7FFE00
000000
000000
000000
000000
000000
ENDCHAR

STARTCHAR Edotaccent
ENCODING 204
SWIDTH 723 0
DWIDTH 18 0
BBX 18 25 0 -5
BITMAP
018000
03C000
03C000
018000
000000
7FFE00
7FFE00
780000
780000
780000
780000
7FF800
7FF800
780000
780000
780000
780000
780000
7FFE00
7FFE00
000000
000000
000000
000000
000000
ENDCHAR

STARTCHAR Iacute
ENCODING 205
SWIDTH 723 0
DWIDTH 18 0
BBX 18 25 0 -5
BITMAP
007C00
01F000
07C000
000000
000000
7FFE00
7FFE00
03C000
03C000
03C000
03C000
03C000
03C000
03C000
03C000
03C000
03C000
03C000
7FFE00
7FFE00
000000
000000
000000
000000
000000
ENDCHAR

STARTCHAR Icircumflex
ENCODING 206
SWIDTH 723 0
DWIDTH 18 0
BBX 18 25 0 -5
BITMAP
03E000
07F000
0E3800
0C1800
000000
7FFE00
7FFE00
03C000
03C000
03C000
03C000
03C000
03C000
03C000
03C000
03C000
03C000
03C000
7FFE00
7FFE00
000000
000000
000000
000000
000000
ENDCHAR

STARTCHAR Imacron
ENCODING 207
SWIDTH 723 0
DWIDTH 18 0
BBX 18 25 0 -5
BITMAP
000000
1FFC00
1FFC00
000000
000000
7FFE00
7FFE00
03C000
03C000
03C000
03C000
03C000
03C000
03C000
03C000
03C000
03C000
03C000
7FFE00
7FFE00
000000
000000
000000
000000
000000
ENDCHAR

STARTCHAR Eth
ENCODING 208
SWIDTH 723 0
DWIDTH 18 0
BBX 18 25 0 -5
BITMAP
000000
000000
000000
000000
000000
7FF000
7FFC00
783E00
781E00
781F00
780F00
FF0F00
FF0F00
780F00
780F00
781F00
781E00
783E00
7FFC00
7FF000
000000
000000
000000
000000
000000
ENDCHAR

STARTCHAR Ncommaaccent
ENCODING 209
SWIDTH 723 0
DWIDTH 18 0
BBX 18 25 0 -5
BITMAP
000000
000000
000000
000000
000000
7C0F00
7C0F00
7E0F00
7F0F00
7F0F00
7F8F00
7B8F00
79CF00
78EF00
78FF00
787F00
783F00
783F00
781F00
781F00
00C000
01E000
01E000
00E000
01C000
ENDCHAR

STARTCHAR Omacron
ENCODING 210
SWIDTH 723 0
DWIDTH 18 0
BBX 18 25 0 -5
BITMAP
000000
1FFC00
1FFC00
000000
000000
07F000
3FFE00
3C1E00
780F00
780F00
780F00
780F00
780F00
780F00
780F00
780F00
780F00
3C1E00
3FFE00
07F000
000000
000000
000000
000000
000000
ENDCHAR

STARTCHAR Kcommaaccent
ENCODING 211
SWIDTH 723 0
DWIDTH 18 0
BBX 18 25 0 -5
BITMAP
000000
000000
000000
000000
000000
781E00
783E00
787800
78F000
79E000
7BC000
7F8000
7F8000
7FC000
7BE000
79F800
787C00
783E00
781F00
780F00
018000
03C000
03C000
01C000
038000
ENDCHAR

STARTCHAR Ocircumflex
ENCODING 212
SWIDTH 723 0
DWIDTH 18 0
BBX 18 25 0 -5
BITMAP
03E000
07F000
0E3800
0C1800
000000
07F000
3FFE00
3C1E00
780F00
780F00
780F00
780F00
780F00
780F00
780F00
780F00
780F00
3C1E00
3FFE00
07F000
000000
000000
000000
000000
000000
ENDCHAR

STARTCHAR Otilde
ENCODING 213
SWIDTH 723 0
DWIDTH 18 0
BBX 18 25 0 -5
BITMAP
078600
0FC600
18FC00
187800
000000
07F000
3FFE00
3C1E00
780F00
780F00
780F00
780F00
780F00
780F00
780F00
780F00
780F00
3C1E00
3FFE00
07F000
000000
000000
000000
000000
000000
ENDCHAR

STARTCHAR Odieresis
ENCODING 214
SWIDTH 723 0
DWIDTH 18 0
BBX 18 25 0 -5
BITMAP
1E1E00
1E1E00
1E1E00
000000
000000
07F000
3FFE00
3C1E00
780F00
780F00
780F00
780F00
780F00
780F00
780F00
780F00
780F00
3C1E00
3FFE00
07F000
000000
000000
000000
000000
000000
ENDCHAR

STARTCHAR multiply
ENCODING 215
SWIDTH 723 0
DWIDTH 18 0
BBX 18 25 0 -5
BITMAP
000000
000000
000000
000000
000000
000000
000000
000000
000000
000000
700700
7C1F00
1F7C00
03E000
07F000
1E3C00
7C1F00
700700
000000
000000
000000
000000
000000
000000
000000
ENDCHAR

STARTCHAR Oslash
ENCODING 216
SWIDTH 723 0
DWIDTH 18 0
BBX 18 25 0 -5
BITMAP
000000
000000
000000
000000
000300
07F300
3FFE00
3C1E00
781F00
783F00
786F00
78CF00
79CF00
798F00
7B0F00
7E0F00
7C0F00
3C1E00
3FFE00
67F000
600000
000000
000000
000000
000000
ENDCHAR

STARTCHAR Uogonek
ENCODING 217
SWIDTH 723 0
DWIDTH 18 0
BBX 18 25 0 -5
BITMAP
000000
000000
000000
000000
000000
780F00
780F00
780F00
780F00
780F00
780F00
780F00
780F00
780F00
780F00
780F00
780F00
7C1F00
3FFE00
0FF800
01E000
01EE00
01FE00
00FC00
000000
ENDCHAR

STARTCHAR Uacute
ENCODING 218
SWIDTH 723 0
DWIDTH 18 0
BBX 18 25 0 -5
BITMAP
007C00
01F000
07C000
000000
000000
780F00
780F00
780F00
780F00
780F00
780F00
780F00
780F00
780F00
780F00
780F00
780F00
7C1F00
3FFE00
0FF800
000000
000000
000000
000000
000000
ENDCHAR

STARTCHAR Ucircumflex
ENCODING 219
SWIDTH 723 0
DWIDTH 18 0
BBX 18 25 0 -5
BITMAP
03E000
07F000
0E3800
0C1800
000000
780F00
780F00
780F00
780F00
780F00
780F00
780F00
780F00
780F00
780F00
780F00
780F00
7C1F00
3FFE00
0FF800
000000
000000
000000
000000
000000
ENDCHAR

STARTCHAR Udieresis
ENCODING 220
SWIDTH 723 0
DWIDTH 18 0
BBX 18 25 0 -5
BITMAP
1E1E00
1E1E00
1E1E00
000000
000000
780F00
780F00
780F00
780F00
780F00
780F00
780F00
780F00
780F00
780F00
780F00
780F00
7C1F00
3FFE00
0FF800
000000
000000
000000
000000
000000
ENDCHAR

STARTCHAR Utilde
ENCODING 221
SWIDTH 723 0
DWIDTH 18 0
BBX 18 25 0 -5
BITMAP
078600
0FC600
18FC00
187800
000000
780F00
780F00
780F00
780F00
780F00
780F00
780F00
780F00
780F00
780F00
780F00
780F00
7C1F00
3FFE00
0FF800
000000
000000
000000
000000
000000
ENDCHAR

STARTCHAR Umacron
ENCODING 222
SWIDTH 723 0
DWIDTH 18 0
BBX 18 25 0 -5
BITMAP
000000
1FFC00
1FFC00
000000
000000
780F00
780F00
780F00
780F00
780F00
780F00
780F00
780F00
780F00
780F00
780F00
780F00
7C1F00
3FFE00
0FF800
000000
000000
000000
000000
000000
ENDCHAR

STARTCHAR germandbls
ENCODING 223
SWIDTH 723 0
DWIDTH 18 0
BBX 18 25 0 -5
BITMAP
000000
000000
000000
000000
000000
0FF800
3FFE00
3C1F00
780F00
780F00
781E00
79F800
79FE00
781F00
780F00
780F00
780F00
781F00
79FE00
79F800
000000
000000
000000
000000
000000
ENDCHAR

STARTCHAR amacron
ENCODING 224
SWIDTH 723 0
DWIDTH 18 0
BBX 18 25 0 -5
BITMAP
000000
000000
000000
1FFC00
1FFC00
000000
000000
000000
1FF000
3FFC00
003C00
001E00
0FFE00
3FFE00
7E1E00
7C1E00
7C1E00
7E3E00
3FFE00
0FDE00
000000
000000
000000
000000
000000
ENDCHAR

STARTCHAR aacute
ENCODING 225
SWIDTH 723 0
DWIDTH 18 0
BBX 18 25 0 -5
BITMAP
000000
000000
000000
003E00
00F800
03E000
000000
000000
1FF000
3FFC00
003C00
001E00
0FFE00
3FFE00
7E1E00
7C1E00
7C1E00
7E3E00
3FFE00
0FDE00
000000
000000
000000
000000
000000
ENDCHAR

STARTCHAR acircumflex
ENCODING 226
SWIDTH 723 0
DWIDTH 18 0
BBX 18 25 0 -5
BITMAP
000000
000000
03E000
07F000
0E3800
0C1800
000000
000000
1FF000
3FFC00
003C00
001E00
0FFE00
3FFE00
7E1E00
7C1E00
7C1E00
7E3E00
3FFE00
0FDE00
000000
000000
000000
000000
000000
ENDCHAR

STARTCHAR atilde
ENCODING 227
SWIDTH 723 0
DWIDTH 18 0
BBX 18 25 0 -5
BITMAP
000000
000000
078600
0FC600
18FC00
187800
000000
000000
1FF000
3FFC00
003C00
001E00
0FFE00
3FFE00
7E1E00
7C1E00
7C1E00
7E3E00
3FFE00
0FDE00
000000
000000
000000
000000
000000
ENDCHAR

STARTCHAR adieresis
ENCODING 228
SWIDTH 723 0
DWIDTH 18 0
BBX 18 25 0 -5
BITMAP
000000
000000
000000
1E1E00
1E1E00
1E1E00
000000
000000
1FF000
3FFC00
003C00
001E00
0FFE00
3FFE00
7E1E00
7C1E00
7C1E00
7E3E00
3FFE00
0FDE00
000000
000000
000000
000000
000000
ENDCHAR

STARTCHAR aring
ENCODING 229
SWIDTH 723 0
DWIDTH 18 0
BBX 18 25 0 -5
BITMAP
000000
000000
01E000
073800
073800
073800
01E000
000000
1FF000
3FFC00
003C00
001E00
0FFE00
3FFE00
7E1E00
7C1E00
7C1E00
7E3E00
3FFE00
0FDE00
000000
000000
000000
000000
000000
ENDCHAR

STARTCHAR ae
ENCODING 230
SWIDTH 723 0
DWIDTH 18 0
BBX 18 25 0 -5
BITMAP
000000
000000
000000
000000
000000
000000
000000
000000
1F3C00
7FFF00
03CF00
01C780
01C780
1FFF80
7FFF80
F1C000
F1C000
F1E380
7FFF80
3E7E00
000000
000000
000000
000000
000000
ENDCHAR

STARTCHAR iogonek
ENCODING 231
SWIDTH 723 0
DWIDTH 18 0
BBX 18 25 0 -5
BITMAP
000000
000000
000000
01E000
01E000
01E000
000000
000000
1FE000
1FE000
01E000
01E000
01E000
01E000
01E000
01E000
01E000
01E000
3FFF00
3FFF00
00F000
00F700
00FF00
007E00
000000
ENDCHAR

STARTCHAR ccaron
ENCODING 232
SWIDTH 723 0
DWIDTH 18 0
BBX 18 25 0 -5
BITMAP
000000
000000
183000
1C7000
0FE000
07C000
000000
000000
0FEE00
3FFE00
3C3E00
781E00
780000
780000
780000
780000
780000
3C1E00
3FFE00
0FF800
000000
000000
000000
000000
000000
ENDCHAR

STARTCHAR eacute
ENCODING 233
SWIDTH 723 0
DWIDTH 18 0
BBX 18 25 0 -5
BITMAP
000000
000000
000000
003E00
00F800
03E000
000000
000000
0FF000
3FFC00
3C3C00
781E00
781E00
7FFE00
7FFE00
780000
780000
3C1E00
3FFE00
0FF800
000000
000000
000000
000000
000000
ENDCHAR

STARTCHAR eogonek
ENCODING 234
SWIDTH 723 0
DWIDTH 18 0
BBX 18 25 0 -5
BITMAP
000000
000000
000000
000000
000000
000000
000000
000000
0FF000
3FFC00
3C3C00
781E00
781E00
7FFE00
7FFE00
780000
780000
3C1E00
3FFE00
0FF800
01E000
01EE00
01FE00
00FC00
000000
ENDCHAR

STARTCHAR edieresis
ENCODING 235
SWIDTH 723 0
DWIDTH 18 0
BBX 18 25 0 -5
BITMAP
000000
000000
000000
3C3C00
3C3C00
3C3C00
000000
000000
0FF000
3FFC00
3C3C00
781E00
781E00
7FFE00
7FFE00
780000
780000
3C1E00
3FFE00
0FF800
000000
000000
000000
000000
000000
ENDCHAR

STARTCHAR edotaccent
ENCODING 236
SWIDTH 723 0
DWIDTH 18 0
BBX 18 25 0 -5
BITMAP
000000
000000
018000
03C000
03C000
018000
000000
000000
0FF000
3FFC00
3C3C00
781E00
781E00
7FFE00
7FFE00
780000
780000
3C1E00
3FFE00
0FF800
000000
000000
000000
000000
000000
ENDCHAR

STARTCHAR iacute
ENCODING 237
SWIDTH 723 0
DWIDTH 18 0
BBX 18 25 0 -5
BITMAP
000000
000000
000000
007C00
01F000
07C000
000000
000000
1FE000
1FE000
01E000
01E000
01E000
01E000
01E000
01E000
01E000
01E000
3FFF00
3FFF00
000000
000000
000000
000000
000000
ENDCHAR

STARTCHAR icircumflex
ENCODING 238
SWIDTH 723 0
DWIDTH 18 0
BBX 18 25 0 -5
BITMAP
000000
000000
01F000
03F800
071C00
060C00
000000
000000
1FE000
1FE000
01E000
01E000
01E000
01E000
01E000
01E000
01E000
01E000
3FFF00
3FFF00
000000
000000
000000
000000
000000
ENDCHAR

STARTCHAR imacron
ENCODING 239
SWIDTH 723 0
DWIDTH 18 0
BBX 18 25 0 -5
BITMAP
000000
000000
000000
000000
1FFC00
1FFC00
000000
000000
1FE000
1FE000
01E000
01E000
01E000
01E000
01E000
01E000
01E000
01E000
3FFF00
3FFF00
000000
000000
000000
000000
000000
ENDCHAR

STARTCHAR dcroat
ENCODING 240
SWIDTH 723 0
DWIDTH 18 0
BBX 18 25 0 -5
BITMAP
000000
000000
1C0000
0F7800
03E000
0FC000
1CF000
007800
0FFC00
3FFE00
3C1E00
780F00
780F00
780F00
780F00
780F00
780F00
3C1E00
3FFE00
0FF800
000000
000000
000000
000000
000000
ENDCHAR

STARTCHAR ncommaaccent
ENCODING 241
SWIDTH 723 0
DWIDTH 18 0
BBX 18 25 0 -5
BITMAP
000000
000000
000000
000000
000000
000000
000000
000000
79F000
7FFC00
7E3C00
7C1E00
781E00
781E00
781E00
781E00
781E00
781E00
781E00
781E00
018000
03C000
03C000
01C000
038000
ENDCHAR

STARTCHAR omacron
ENCODING 242
SWIDTH 723 0
DWIDTH 18 0
BBX 18 25 0 -5
BITMAP
000000
000000
000000
000000
1FFC00
1FFC00
000000
000000
0FF000
3FFC00
3C3C00
781E00
781E00
781E00
781E00
781E00
781E00
3C3C00
3FFC00
0FF000
000000
000000
000000
000000
000000
ENDCHAR

STARTCHAR kcommaaccent
ENCODING 243
SWIDTH 723 0
DWIDTH 18 0
BBX 18 25 0 -5
BITMAP
000000
000000
000000
000000
780000
780000
780000
780000
781E00
783E00
787800
79F000
7BC000
7F8000
7FC000
7FE000
79F000
78FC00
783E00
781E00
018000
03C000
03C000
01C000
038000
ENDCHAR

STARTCHAR ocircumflex
ENCODING 244
SWIDTH 723 0
DWIDTH 18 0
BBX 18 25 0 -5
BITMAP
000000
000000
03E000
07F000
0E3800
0C1800
000000
000000
0FF000
3FFC00
3C3C00
781E00
781E00
781E00
781E00
781E00
781E00
3C3C00
3FFC00
0FF000
000000
000000
000000
000000
000000
ENDCHAR

STARTCHAR otilde
ENCODING 245
SWIDTH 723 0
DWIDTH 18 0
BBX 18 25 0 -5
BITMAP
000000
000000
078600
0FC600
18FC00
187800
000000
000000
0FF000
3FFC00
3C3C00
781E00
781E00
781E00
781E00
781E00
781E00
3C3C00
3FFC00
0FF000
000000
000000
000000
000000
000000
ENDCHAR

STARTCHAR odieresis
ENCODING 246
SWIDTH 723 0
DWIDTH 18 0
BBX 18 25 0 -5
BITMAP
000000
000000
000000
3C3C00
3C3C00
3C3C00
000000
000000
0FF000
3FFC00
3C3C00
781E00
781E00
781E00
781E00
781E00
781E00
3C3C00
3FFC00
0FF000
000000
000000
000000
000000
000000
ENDCHAR

STARTCHAR divide
ENCODING 247
SWIDTH 723 0
DWIDTH 18 0
BBX 18 25 0 -5
BITMAP
000000
000000
000000
000000
000000
000000
000000
000000
01C000
03E000
01C000
000000
000000
7FFF00
7FFF00
000000
000000
01C000
03E000
01C000
000000
000000
000000
000000
000000
ENDCHAR

STARTCHAR oslash
ENCODING 248
SWIDTH 723 0
DWIDTH 18 0
BBX 18 25 0 -5
BITMAP
000000
000000
000000
000000
000000
000000
000000
000600
0FF600
3FFC00
3C3C00
787E00
78DE00
799E00
791E00
7B1E00
7E1E00
3C3C00
3FFC00
6FF000
600000
000000
000000
000000
000000
ENDCHAR

STARTCHAR uogonek
ENCODING 249
SWIDTH 723 0
DWIDTH 18 0
BBX 18 25 0 -5
BITMAP
000000
000000
000000
000000
000000
000000
000000
000000
781E00
781E00
781E00
781E00
781E00
781E00
781E00
781E00
781E00
3C3E00
3FFE00
07DE00
0F0000
0F7000
0FF000
07E000
000000
ENDCHAR

STARTCHAR uacute
ENCODING 250
SWIDTH 723 0
DWIDTH 18 0
BBX 18 25 0 -5
BITMAP
000000
000000
000000
003E00
00F800
03E000
000000
000000
781E00
781E00
781E00
781E00
781E00
781E00
781E00
781E00
781E00
3C3E00
3FFE00
07DE00
000000
000000
000000
000000
000000
ENDCHAR

STARTCHAR ucircumflex
ENCODING 251
SWIDTH 723 0
DWIDTH 18 0
BBX 18 25 0 -5
BITMAP
000000
000000
03E000
07F000
0E3800
0C1800
000000
000000
781E00
781E00
781E00
781E00
781E00
781E00
781E00
781E00
781E00
3C3E00
3FFE00
07DE00
000000
000000
000000
000000
000000
ENDCHAR

STARTCHAR udieresis
ENCODING 252
SWIDTH 723 0
DWIDTH 18 0
BBX 18 25 0 -5
BITMAP
000000
000000
000000
3C3C00
3C3C00
3C3C00
000000
000000
781E00
781E00
781E00
781E00
781E00
781E00
781E00
781E00
781E00
3C3E00
3FFE00
07DE00
000000
000000
000000
000000
000000
ENDCHAR

STARTCHAR utilde
ENCODING 253
SWIDTH 723 0
DWIDTH 18 0
BBX 18 25 0 -5
BITMAP
000000
000000
0F0C00
1F8C00
31F800
30F000
000000
000000
781E00
781E00
781E00
781E00
781E00
781E00
781E00
781E00
781E00
3C3E00
3FFE00
07DE00
000000
000000
000000
000000
000000
ENDCHAR

STARTCHAR umacron
ENCODING 254
SWIDTH 723 0
DWIDTH 18 0
BBX 18 25 0 -5
BITMAP
000000
000000
000000
000000
1FFC00
1FFC00
000000
000000
781E00
781E00
781E00
781E00
781E00
781E00
781E00
781E00
781E00
3C3E00
3FFE00
07DE00
000000
000000
000000
000000
000000
ENDCHAR

STARTCHAR dotaccent
ENCODING 255
SWIDTH 723 0
DWIDTH 18 0
BBX 18 25 0 -5
BITMAP
000000
000000
00C000
01E000
01E000
00C000
000000
000000
000000
000000
000000
000000
000000
000000
000000
000000
000000
000000
000000
000000
000000
000000
000000
000000
000000
ENDCHAR
ENDFONT
